HIERARCHY
ROOT Hips
{
	OFFSET 0.00000 0.00000 0.00000
	CHANNELS 6 Xposition Yposition Zposition Zrotation Yrotation Xrotation 
	JOINT LHipJoint
	{
		OFFSET 0 0 0
		CHANNELS 3 Zrotation Yrotation Xrotation
		JOINT LeftUpLeg
		{
			OFFSET 1.73240 -1.89999 0.57994
			CHANNELS 3 Zrotation Yrotation Xrotation
			JOINT LeftLeg
			{
				OFFSET 2.43106 -6.67930 0.00000
				CHANNELS 3 Zrotation Yrotation Xrotation
				JOINT LeftFoot
				{
					OFFSET 2.78854 -7.66147 0.00000
					CHANNELS 3 Zrotation Yrotation Xrotation
					JOINT LeftToeBase
					{
						OFFSET 0.17314 -0.47571 2.01064
						CHANNELS 3 Zrotation Yrotation Xrotation
						End Site
						{
							OFFSET 0.00000 -0.00000 1.04147
						}
					}
				}
			}
		}
	}
	JOINT RHipJoint
	{
		OFFSET 0 0 0
		CHANNELS 3 Zrotation Yrotation Xrotation
		JOINT RightUpLeg
		{
			OFFSET -1.57078 -1.89998 0.57994
			CHANNELS 3 Zrotation Yrotation Xrotation
			JOINT RightLeg
			{
				OFFSET -2.50166 -6.87326 0.00000
				CHANNELS 3 Zrotation Yrotation Xrotation
				JOINT RightFoot
				{
					OFFSET -2.77304 -7.61886 0.00000
					CHANNELS 3 Zrotation Yrotation Xrotation
					JOINT RightToeBase
					{
						OFFSET -0.23513 -0.64602 2.11039
						CHANNELS 3 Zrotation Yrotation Xrotation
						End Site
						{
							OFFSET -0.00000 -0.00000 1.10597
						}
					}
				}
			}
		}
	}
	JOINT LowerBack
	{
		OFFSET 0 0 0
		CHANNELS 3 Zrotation Yrotation Xrotation
		JOINT Spine
		{
			OFFSET -0.00908 2.00015 -0.35323
			CHANNELS 3 Zrotation Yrotation Xrotation
			JOINT Spine1
			{
				OFFSET 0.05647 2.02258 0.04270
				CHANNELS 3 Zrotation Yrotation Xrotation
				JOINT Neck
				{
					OFFSET 0 0 0
					CHANNELS 3 Zrotation Yrotation Xrotation
					JOINT Neck1
					{
						OFFSET -0.02074 1.73711 0.13117
						CHANNELS 3 Zrotation Yrotation Xrotation
						JOINT Head
						{
							OFFSET -0.02359 1.73615 -0.24320
							CHANNELS 3 Zrotation Yrotation Xrotation
							End Site
							{
								OFFSET -0.00579 1.75982 -0.09688
							}
						}
					}
				}
				JOINT LeftShoulder
				{
					OFFSET 0 0 0
					CHANNELS 3 Zrotation Yrotation Xrotation
					JOINT LeftArm
					{
						OFFSET 3.20537 1.11432 -0.27680
						CHANNELS 3 Zrotation Yrotation Xrotation
						JOINT LeftForeArm
						{
							OFFSET 5.05923 -0.00000 -0.00000
							CHANNELS 3 Zrotation Yrotation Xrotation
							JOINT LeftHand
							{
								OFFSET 3.51996 -0.00000 0.00000
								CHANNELS 3 Zrotation Yrotation Xrotation
								JOINT LeftFingerBase
								{
									OFFSET 0 0 0
									CHANNELS 3 Zrotation Yrotation Xrotation
									JOINT LeftHandIndex1
									{
										OFFSET 0.65238 -0.00000 0.00000
										CHANNELS 3 Zrotation Yrotation Xrotation
										End Site
										{
											OFFSET 0.52596 -0.00000 0.00000
										}
									}
								}
								JOINT LThumb
								{
									OFFSET 0 0 0
									CHANNELS 3 Zrotation Yrotation Xrotation
									End Site
									{
										OFFSET 0.53399 -0.00000 0.53399
									}
								}
							}
						}
					}
				}
				JOINT RightShoulder
				{
					OFFSET 0 0 0
					CHANNELS 3 Zrotation Yrotation Xrotation
					JOINT RightArm
					{
						OFFSET -2.96983 1.42602 -0.37449
						CHANNELS 3 Zrotation Yrotation Xrotation
						JOINT RightForeArm
						{
							OFFSET -5.40867 -0.00000 0.00000
							CHANNELS 3 Zrotation Yrotation Xrotation
							JOINT RightHand
							{
								OFFSET -3.12964 -0.00000 0.00000
								CHANNELS 3 Zrotation Yrotation Xrotation
								JOINT RightFingerBase
								{
									OFFSET 0 0 0
									CHANNELS 3 Zrotation Yrotation Xrotation
									JOINT RightHandIndex1
									{
										OFFSET -0.83271 -0.00000 0.00000
										CHANNELS 3 Zrotation Yrotation Xrotation
										End Site
										{
											OFFSET -0.67135 -0.00000 0.00000
										}
									}
								}
								JOINT RThumb
								{
									OFFSET 0 0 0
									CHANNELS 3 Zrotation Yrotation Xrotation
									End Site
									{
										OFFSET -0.68160 -0.00000 0.68160
									}
								}
							}
						}
					}
				}
			}
		}
	}
}
MOTION
Frames: 8
Frame Time: .0083333
-0.515 18.3415 49.3242 0 0 0 0 0 0 -21 0 0 0 0 0 0 0 0 0 0 0 0 0 0 21 0 0 0 0 0 0 0 0 0 0 0 0 0 0 0 0 0 0 0 0 0 0 -16 0 0 21 0 0 11 0 0 0 -8 0 0 0 0 0 0 0 0 0 0 0 0 0 0 0 0 0 0 0 0 8 0 0 0 0 0 0 0 0 0 0 0 0 0 0 0 0 0
-0.5150 18.3415 49.3242 -179.1700 1.1887 177.2690 0.0000 0.0000 0.0000 -19.4696 -12.4538 -0.3446 1.8746 8.5998 24.5514 0.6972 -1.5358 -15.3260 0.1061 -2.0999 -5.7819 0.0000 0.0000 0.0000 22.5577 6.1064 -5.4992 -2.9018 -10.5343 30.7248 -0.8837 -8.2082 -22.5508 -0.3559 -3.8329 10.6070 -4.3721 -1.4264 16.4116 4.7504 -2.0065 0.2315 8.1550 -0.5501 -8.6513 -3.1775 -3.2483 -4.8530 -6.5662 3.2853 36.0401 -1.2116 1.9874 13.0027 -0.0000 0.0000 0.0000 -86.5051 17.9846 18.4325 29.8362 -40.7526 -11.3025 -0.0000 0.0000 -8.5853 13.9551 52.0332 11.0842 -7.1250 0.0000 -0.0000 -62.1767 76.1694 -48.9829 -0.0000 0.0000 0.0000 47.3947 9.7496 -59.8239 -48.8614 52.5258 -25.2677 0.0000 -0.0000 -69.5840 -14.2485 -8.7980 2.2243 7.1250 -0.0000 -0.0000 10.9276 -38.8310 1.6844
-0.5081 18.3391 49.3116 -179.2220 1.0911 177.2860 0.0000 0.0000 0.0000 -19.4953 -12.4566 -0.4047 1.8945 8.6428 24.6841 0.7050 -1.6657 -15.3820 0.1111 -2.1492 -5.9181 0.0000 0.0000 0.0000 22.4916 5.8517 -5.5873 -2.9057 -10.5408 30.7465 -0.8873 -8.1445 -22.5317 -0.3442 -3.7696 10.4293 -4.6956 -1.6930 16.1564 4.9357 -2.4118 -0.0585 8.6438 -0.7216 -8.7368 -3.7195 -3.0515 -3.1744 -6.5980 3.6383 35.4886 -1.0828 2.1659 12.4283 0.0000 0.0000 0.0000 -87.1020 19.0523 17.7397 30.1963 -41.0611 -11.5384 -0.0000 0.0000 -8.7577 14.0174 52.6537 11.2255 -7.1250 0.0000 -0.0000 -64.5852 76.4021 -51.3970 0.0000 0.0000 0.0000 47.1265 9.5805 -58.8720 -49.0522 52.6060 -25.4192 0.0000 -0.0000 -68.9046 -13.7307 -8.9200 2.1697 7.1250 -0.0000 -0.0000 11.3910 -38.9156 1.7339
-0.5022 18.3343 49.2988 -179.2270 0.9460 177.2910 0.0000 0.0000 0.0000 -19.4976 -12.4815 -0.3945 1.8994 8.6533 24.7167 0.7059 -1.6384 -15.3985 0.1552 -2.5381 -6.9953 0.0000 0.0000 0.0000 22.4855 5.6192 -5.6775 -2.9243 -10.5715 30.8478 -0.9112 -8.0866 -22.6964 -0.3590 -3.8493 10.6531 -4.7468 -1.6690 16.7174 4.9995 -2.4010 -0.3429 8.8007 -0.6730 -9.3666 -3.7260 -3.1267 -3.3240 -6.6575 3.6615 35.7833 -1.0987 2.1811 12.5914 -0.0000 0.0000 0.0000 -87.1662 19.4476 17.9105 30.3302 -41.1748 -11.6264 -0.0000 0.0000 -8.7206 14.4687 53.1627 11.6685 -7.1250 0.0000 -0.0000 -66.4732 76.7291 -53.4674 -0.0000 0.0000 0.0000 46.9937 9.0313 -58.6941 -49.3724 52.7392 -25.6738 0.0000 -0.0000 -68.3988 -13.2200 -8.8468 2.0691 7.1250 -0.0000 -0.0000 11.8097 -38.8043 1.8326
-0.4894 18.3265 49.2855 -179.2660 0.8641 177.2960 0.0000 0.0000 0.0000 -19.5028 -12.5183 -0.3545 1.9052 8.6658 24.7554 0.7111 -1.7525 -15.4301 0.1252 -2.2813 -6.2836 0.0000 0.0000 0.0000 22.5207 5.6482 -5.6524 -2.9393 -10.5961 30.9295 -0.9145 -8.2817 -22.8787 -0.3495 -3.7983 10.5100 -4.6919 -1.7366 16.4175 4.8864 -2.4873 -0.1972 8.6298 -0.7440 -9.0263 -3.6092 -3.0881 -3.2175 -6.6089 3.5959 35.5783 -1.1106 2.1622 12.4739 -0.0000 0.0000 0.0000 -86.9353 19.1703 17.8461 30.2123 -41.0747 -11.5489 -0.0000 0.0000 -8.5766 14.3304 53.3945 11.5892 -7.1250 0.0000 -0.0000 -67.4844 76.7377 -54.4074 -0.0000 0.0000 0.0000 47.2001 9.0324 -58.7927 -49.7885 52.9098 -26.0054 0.0000 -0.0000 -67.9727 -12.8299 -9.0409 2.0496 7.1250 -0.0000 -0.0000 12.1797 -38.9695 1.8417
-0.4790 18.3198 49.2738 -179.3180 0.7894 177.2210 0.0000 0.0000 0.0000 -19.5450 -12.5039 -0.2519 1.9072 8.6700 24.7682 0.7140 -1.8267 -15.4461 0.1299 -2.3236 -6.4009 0.0000 0.0000 0.0000 22.5255 5.6453 -5.5583 -2.9560 -10.6235 31.0203 -0.9351 -8.3154 -23.0835 -0.3725 -3.9202 10.8521 -4.7237 -1.8319 16.3281 4.8301 -2.6224 -0.0804 8.6013 -0.8225 -8.8232 -3.5299 -3.0089 -3.0407 -6.6207 3.6018 35.3058 -1.1314 2.1660 12.3183 -0.0000 0.0000 0.0000 -86.9419 19.0832 17.5426 30.2556 -41.1115 -11.5773 -0.0000 0.0000 -8.5971 14.4621 53.0540 11.6469 -7.1250 0.0000 -0.0000 -66.0270 76.6958 -53.0230 -0.0000 0.0000 0.0000 47.2344 9.0590 -58.6494 -50.0500 53.0156 -26.2141 0.0000 -0.0000 -67.4911 -12.4243 -8.8643 1.9444 7.1250 -0.0000 -0.0000 12.4866 -38.7630 1.9544
-0.4705 18.3181 49.2601 -179.3230 0.7633 177.2200 0.0000 0.0000 0.0000 -19.5345 -12.4982 -0.2078 1.9074 8.6705 24.7698 0.7159 -1.8068 -15.4718 0.1415 -2.4243 -6.6799 0.0000 0.0000 0.0000 22.5646 5.6719 -5.5358 -2.9694 -10.6453 31.0927 -0.9478 -8.2973 -23.1785 -0.3785 -3.9511 10.9390 -4.6484 -1.8063 16.3081 4.7806 -2.5706 0.0850 8.4781 -0.8123 -8.6440 -3.4076 -2.9912 -3.4208 -6.4988 3.5028 35.2699 -1.1196 2.1147 12.3719 0.0000 -0.0000 0.0000 -86.7382 18.7388 17.7504 30.3257 -41.1710 -11.6235 -0.0000 0.0000 -8.8853 14.6410 52.9524 11.7779 -7.1250 0.0000 -0.0000 -65.5386 76.7363 -52.6192 0.0000 -0.0000 0.0000 47.3118 8.9997 -58.7721 -50.4664 53.1819 -26.5471 0.0000 -0.0000 -66.9779 -12.0893 -8.5800 1.8302 7.1250 -0.0000 -0.0000 12.7106 -38.4554 2.0889
-0.4615 18.3158 49.2438 -179.3850 0.7849 177.2530 0.0000 0.0000 0.0000 -19.5671 -12.3920 -0.2254 1.9076 8.6709 24.7710 0.7192 -1.8123 -15.5072 0.1810 -2.7402 -7.5561 0.0000 0.0000 0.0000 22.5452 5.7410 -5.4812 -2.9717 -10.6491 31.1053 -0.9577 -8.3159 -23.2770 -0.4104 -4.1127 11.3938 -4.5414 -1.6979 16.3059 4.6964 -2.3999 0.3711 8.2661 -0.7510 -8.3657 -3.3415 -3.0359 -4.4094 -6.3222 3.2893 35.3567 -1.0918 1.9733 12.6013 0.0000 0.0000 0.0000 -86.4815 18.1457 18.0342 30.4872 -41.3073 -11.7299 -0.0000 0.0000 -8.9455 14.6312 53.2189 11.8099 -7.1250 0.0000 -0.0000 -66.6479 76.8079 -53.7119 0.0000 0.0000 0.0000 47.3780 9.1345 -59.1351 -50.9131 53.3572 -26.9051 0.0000 -0.0000 -66.0970 -11.7074 -8.4262 1.7393 7.1250 -0.0000 -0.0000 13.0000 -38.2754 2.1971
